<svg width="1387" height="127" viewBox="0 0 1387 127" fill="none" xmlns="http://www.w3.org/2000/svg">
<path d="M49.136 7.296V96H31.344V7.296H49.136ZM67.169 33.152L74.081 7.296H94.689L82.273 33.152H67.169ZM163.407 75.776L193.359 7.296H214.095V96H196.431V33.664L169.551 96H157.135L130.255 33.664V96H112.719V7.296H133.455L163.407 75.776ZM286.596 74.24C287.023 77.1413 288.089 79.4453 289.796 81.152C291.588 82.7733 294.319 83.584 297.988 83.584C300.975 83.584 303.364 83.1573 305.156 82.304C307.033 81.4507 308.441 80.1707 309.38 78.464C310.404 76.672 311.044 74.4533 311.3 71.808C311.641 69.0773 311.812 65.8347 311.812 62.08V7.296H329.476V63.36C329.476 67.712 329.22 71.936 328.708 76.032C328.281 80.0427 327.001 83.6267 324.868 86.784C322.82 89.9413 319.663 92.4587 315.396 94.336C311.215 96.2133 305.412 97.152 297.988 97.152C293.124 97.152 288.9 96.5973 285.316 95.488C281.732 94.2933 278.745 92.672 276.356 90.624C273.967 88.576 272.132 86.1867 270.852 83.456C269.572 80.64 268.761 77.568 268.42 74.24H286.596ZM385.991 6.016C394.695 6.016 401.863 7.296 407.495 9.856C413.212 12.3307 417.692 15.7013 420.935 19.968C424.178 24.1493 426.439 28.9707 427.719 34.432C428.999 39.8933 429.639 45.568 429.639 51.456C429.639 57.5147 428.914 63.3173 427.463 68.864C426.098 74.3253 423.708 79.1467 420.295 83.328C416.967 87.5093 412.487 90.88 406.855 93.44C401.308 95.9147 394.354 97.152 385.991 97.152C377.714 97.152 370.802 95.9147 365.255 93.44C359.708 90.88 355.228 87.5093 351.815 83.328C348.487 79.1467 346.098 74.3253 344.647 68.864C343.282 63.3173 342.599 57.5147 342.599 51.456C342.599 45.568 343.239 39.8933 344.519 34.432C345.799 28.9707 348.06 24.1493 351.303 19.968C354.546 15.7013 358.94 12.3307 364.487 9.856C370.119 7.296 377.287 6.016 385.991 6.016ZM386.759 83.2C391.879 83.2 396.06 82.2613 399.303 80.384C402.631 78.5067 405.191 76.0747 406.983 73.088C408.86 70.1013 410.14 66.7307 410.823 62.976C411.506 59.136 411.847 55.296 411.847 51.456C411.847 47.36 411.463 43.4347 410.695 39.68C410.012 35.9253 408.732 32.5973 406.855 29.696C404.978 26.7947 402.418 24.4907 399.175 22.784C395.932 20.992 391.836 20.096 386.887 20.096H385.095C380.146 20.096 376.05 20.992 372.807 22.784C369.65 24.4907 367.132 26.7947 365.255 29.696C363.463 32.5973 362.183 35.9253 361.415 39.68C360.732 43.4347 360.391 47.36 360.391 51.456C360.391 55.296 360.69 59.136 361.287 62.976C361.97 66.7307 363.207 70.1013 364.999 73.088C366.876 76.0747 369.394 78.5067 372.551 80.384C375.794 82.2613 379.975 83.2 385.095 83.2H386.759ZM502.995 96L475.987 60.672H461.011V96H443.219V7.296H477.651C483.198 7.296 488.318 7.85066 493.011 8.96C497.79 9.984 501.928 11.6053 505.427 13.824C508.926 15.9573 511.656 18.7307 513.619 22.144C515.667 25.472 516.691 29.44 516.691 34.048C516.691 40.448 514.814 45.696 511.059 49.792C507.304 53.888 502.099 56.7467 495.443 58.368L523.859 96H502.995ZM461.011 21.248V46.848H480.979C486.867 46.848 491.262 45.8667 494.163 43.904C497.064 41.9413 498.515 38.656 498.515 34.048C498.515 31.9147 498.046 30.0373 497.107 28.416C496.254 26.7947 495.016 25.472 493.395 24.448C491.859 23.3387 490.024 22.528 487.891 22.016C485.758 21.504 483.454 21.248 480.979 21.248H461.011ZM555.261 7.296V96H537.469V7.296H555.261ZM629.777 31.872C629.777 30.08 629.222 28.416 628.113 26.88C627.089 25.344 625.681 23.9787 623.889 22.784C622.097 21.5893 620.006 20.6507 617.617 19.968C615.228 19.2853 612.71 18.944 610.065 18.944C604.006 18.944 599.142 20.0107 595.473 22.144C591.889 24.2773 590.097 26.9653 590.097 30.208C590.097 32.4267 590.95 34.2613 592.657 35.712C594.364 37.0773 596.582 38.2293 599.313 39.168C602.129 40.1067 605.286 40.96 608.785 41.728C612.369 42.4107 615.996 43.1787 619.665 44.032C623.42 44.8853 627.089 45.9093 630.673 47.104C634.257 48.2987 637.414 49.92 640.145 51.968C642.961 54.016 645.222 56.5333 646.929 59.52C648.636 62.5067 649.489 66.176 649.489 70.528C649.489 75.136 648.422 79.104 646.289 82.432C644.241 85.76 641.468 88.5333 637.969 90.752C634.47 92.8853 630.374 94.5067 625.681 95.616C620.988 96.64 616.038 97.152 610.833 97.152C604.945 97.152 599.441 96.64 594.321 95.616C589.201 94.592 584.764 92.9707 581.009 90.752C577.34 88.5333 574.438 85.6747 572.305 82.176C570.172 78.6773 569.105 74.4533 569.105 69.504H588.049C588.39 71.7227 589.201 73.728 590.481 75.52C591.846 77.312 593.553 78.848 595.601 80.128C597.649 81.3227 599.953 82.2613 602.513 82.944C605.158 83.5413 607.932 83.84 610.833 83.84C612.966 83.84 615.228 83.584 617.617 83.072C620.092 82.4747 622.353 81.664 624.401 80.64C626.449 79.5307 628.113 78.1653 629.393 76.544C630.758 74.9227 631.441 73.088 631.441 71.04C631.441 68.3093 630.588 66.1333 628.881 64.512C627.174 62.8053 624.956 61.44 622.225 60.416C619.494 59.392 616.337 58.5387 612.753 57.856C609.254 57.1733 605.67 56.448 602.001 55.68C598.332 54.912 594.705 54.016 591.121 52.992C587.622 51.8827 584.508 50.3893 581.777 48.512C579.046 46.6347 576.828 44.288 575.121 41.472C573.414 38.5707 572.561 34.944 572.561 30.592C572.561 26.5813 573.5 23.04 575.377 19.968C577.254 16.896 579.814 14.336 583.057 12.288C586.385 10.24 590.268 8.70399 594.705 7.67999C599.228 6.57066 604.092 6.016 609.297 6.016C615.697 6.016 621.286 6.656 626.065 7.936C630.844 9.216 634.812 11.008 637.969 13.312C641.126 15.616 643.473 18.3467 645.009 21.504C646.63 24.6613 647.441 28.1173 647.441 31.872H629.777ZM706.344 96V7.296H724.392V48.256L768.68 7.296H792.232L749.48 45.44L792.232 96H770.6L737.704 55.936L724.392 68.864V96H706.344ZM839.241 6.016C847.945 6.016 855.113 7.296 860.745 9.856C866.462 12.3307 870.942 15.7013 874.185 19.968C877.428 24.1493 879.689 28.9707 880.969 34.432C882.249 39.8933 882.889 45.568 882.889 51.456C882.889 57.5147 882.164 63.3173 880.713 68.864C879.348 74.3253 876.958 79.1467 873.545 83.328C870.217 87.5093 865.737 90.88 860.105 93.44C854.558 95.9147 847.604 97.152 839.241 97.152C830.964 97.152 824.052 95.9147 818.505 93.44C812.958 90.88 808.478 87.5093 805.065 83.328C801.737 79.1467 799.348 74.3253 797.897 68.864C796.532 63.3173 795.849 57.5147 795.849 51.456C795.849 45.568 796.489 39.8933 797.769 34.432C799.049 28.9707 801.31 24.1493 804.553 19.968C807.796 15.7013 812.19 12.3307 817.737 9.856C823.369 7.296 830.537 6.016 839.241 6.016ZM840.009 83.2C845.129 83.2 849.31 82.2613 852.553 80.384C855.881 78.5067 858.441 76.0747 860.233 73.088C862.11 70.1013 863.39 66.7307 864.073 62.976C864.756 59.136 865.097 55.296 865.097 51.456C865.097 47.36 864.713 43.4347 863.945 39.68C863.262 35.9253 861.982 32.5973 860.105 29.696C858.228 26.7947 855.668 24.4907 852.425 22.784C849.182 20.992 845.086 20.096 840.137 20.096H838.345C833.396 20.096 829.3 20.992 826.057 22.784C822.9 24.4907 820.382 26.7947 818.505 29.696C816.713 32.5973 815.433 35.9253 814.665 39.68C813.982 43.4347 813.641 47.36 813.641 51.456C813.641 55.296 813.94 59.136 814.537 62.976C815.22 66.7307 816.457 70.1013 818.249 73.088C820.126 76.0747 822.644 78.5067 825.801 80.384C829.044 82.2613 833.225 83.2 838.345 83.2H840.009ZM956.245 96L929.237 60.672H914.261V96H896.469V7.296H930.901C936.448 7.296 941.568 7.85066 946.261 8.96C951.04 9.984 955.178 11.6053 958.677 13.824C962.176 15.9573 964.906 18.7307 966.869 22.144C968.917 25.472 969.941 29.44 969.941 34.048C969.941 40.448 968.064 45.696 964.309 49.792C960.554 53.888 955.349 56.7467 948.693 58.368L977.109 96H956.245ZM914.261 21.248V46.848H934.229C940.117 46.848 944.512 45.8667 947.413 43.904C950.314 41.9413 951.765 38.656 951.765 34.048C951.765 31.9147 951.296 30.0373 950.357 28.416C949.504 26.7947 948.266 25.472 946.645 24.448C945.109 23.3387 943.274 22.528 941.141 22.016C939.008 21.504 936.704 21.248 934.229 21.248H914.261ZM1046.53 31.872C1046.53 30.08 1045.97 28.416 1044.86 26.88C1043.84 25.344 1042.43 23.9787 1040.64 22.784C1038.85 21.5893 1036.76 20.6507 1034.37 19.968C1031.98 19.2853 1029.46 18.944 1026.82 18.944C1020.76 18.944 1015.89 20.0107 1012.22 22.144C1008.64 24.2773 1006.85 26.9653 1006.85 30.208C1006.85 32.4267 1007.7 34.2613 1009.41 35.712C1011.11 37.0773 1013.33 38.2293 1016.06 39.168C1018.88 40.1067 1022.04 40.96 1025.54 41.728C1029.12 42.4107 1032.75 43.1787 1036.42 44.032C1040.17 44.8853 1043.84 45.9093 1047.42 47.104C1051.01 48.2987 1054.16 49.92 1056.9 51.968C1059.71 54.016 1061.97 56.5333 1063.68 59.52C1065.39 62.5067 1066.24 66.176 1066.24 70.528C1066.24 75.136 1065.17 79.104 1063.04 82.432C1060.99 85.76 1058.22 88.5333 1054.72 90.752C1051.22 92.8853 1047.12 94.5067 1042.43 95.616C1037.74 96.64 1032.79 97.152 1027.58 97.152C1021.7 97.152 1016.19 96.64 1011.07 95.616C1005.95 94.592 1001.51 92.9707 997.759 90.752C994.09 88.5333 991.188 85.6747 989.055 82.176C986.922 78.6773 985.855 74.4533 985.855 69.504H1004.8C1005.14 71.7227 1005.95 73.728 1007.23 75.52C1008.6 77.312 1010.3 78.848 1012.35 80.128C1014.4 81.3227 1016.7 82.2613 1019.26 82.944C1021.91 83.5413 1024.68 83.84 1027.58 83.84C1029.72 83.84 1031.98 83.584 1034.37 83.072C1036.84 82.4747 1039.1 81.664 1041.15 80.64C1043.2 79.5307 1044.86 78.1653 1046.14 76.544C1047.51 74.9227 1048.19 73.088 1048.19 71.04C1048.19 68.3093 1047.34 66.1333 1045.63 64.512C1043.92 62.8053 1041.71 61.44 1038.98 60.416C1036.24 59.392 1033.09 58.5387 1029.5 57.856C1026 57.1733 1022.42 56.448 1018.75 55.68C1015.08 54.912 1011.46 54.016 1007.87 52.992C1004.37 51.8827 1001.26 50.3893 998.527 48.512C995.796 46.6347 993.578 44.288 991.871 41.472C990.164 38.5707 989.311 34.944 989.311 30.592C989.311 26.5813 990.25 23.04 992.127 19.968C994.004 16.896 996.564 14.336 999.807 12.288C1003.14 10.24 1007.02 8.70399 1011.46 7.67999C1015.98 6.57066 1020.84 6.016 1026.05 6.016C1032.45 6.016 1038.04 6.656 1042.82 7.936C1047.59 9.216 1051.56 11.008 1054.72 13.312C1057.88 15.616 1060.22 18.3467 1061.76 21.504C1063.38 24.6613 1064.19 28.1173 1064.19 31.872H1046.53ZM1153.31 7.296V21.248H1120.8V96H1103.13V21.248H1070.75V7.296H1153.31ZM1228.77 21.376H1180.39V44.672H1225.95V58.496H1180.39V81.92H1230.05V96H1162.59V7.296H1228.77V21.376ZM1326.77 96H1307.19L1262.13 30.592V96H1244.47V7.296H1264.18L1308.98 72.832V7.296H1326.77V96Z" fill="white"/>
<g filter="url(#filter0_d_6_6)">
<rect width="80.9196" height="53.4641" rx="25" transform="matrix(0.980603 -0.196004 0.134045 0.990975 1 45.5433)" fill="#4B4B4B"/>
<rect x="0.557324" y="0.397485" width="79.9196" height="52.4641" rx="24.5" transform="matrix(0.980603 -0.196004 0.134045 0.990975 0.95753 45.6561)" stroke="black"/>
</g>
<path d="M41.8442 77.7972L41.6914 76.8519C42.4983 76.4245 43.0758 76.0829 43.4238 75.8269C43.7834 75.5681 43.9498 75.3554 43.9229 75.189L42.4845 66.2893C42.3672 65.5641 42.2311 64.9853 42.0761 64.5531C41.9191 64.1089 41.7316 63.7771 41.5136 63.5575C41.2937 63.326 41.0355 63.1962 40.739 63.1683C40.4522 63.1256 40.1214 63.1491 39.7465 63.2386C38.9734 63.4233 38.169 63.9797 37.3335 64.9078C36.5097 65.8332 35.7114 67.1044 34.9386 68.7214L36.279 77.0147C36.3079 77.193 36.5485 77.327 37.001 77.4165C37.4652 77.5032 38.0915 77.5388 38.8798 77.5234L39.0326 78.4687L31.0373 80.3783L30.8845 79.4331C31.625 79.0463 32.1878 78.7266 32.5728 78.4741C32.9677 78.2069 33.1487 77.9723 33.1161 77.7701L29.7318 56.8319C29.651 56.3325 29.5652 55.9517 29.4741 55.6894C29.3928 55.4125 29.2577 55.2163 29.0687 55.1009C28.8914 54.9827 28.634 54.9331 28.2964 54.9519C27.9685 54.9562 27.5177 54.9897 26.9439 55.0527L26.7997 54.161C27.3349 53.9343 27.8116 53.7217 28.2297 53.523C28.6594 53.3216 29.0531 53.1226 29.4107 52.9261C29.7781 52.7148 30.121 52.5032 30.4396 52.2913C30.7699 52.0766 31.1081 51.8353 31.4542 51.5674L32.2433 52.0458L34.5408 66.2602C34.9916 65.4363 35.4842 64.6827 36.0186 63.9993C36.5511 63.3041 37.0922 62.6994 37.6417 62.1853C38.1913 61.6713 38.7319 61.2519 39.2635 60.9274C39.8067 60.6001 40.3068 60.3818 40.7637 60.2727C41.2674 60.1524 41.767 60.1195 42.2625 60.174C42.7561 60.2167 43.2055 60.3625 43.6108 60.6115C44.0278 60.8577 44.3839 61.2171 44.6794 61.6899C44.9846 62.148 45.1958 62.7397 45.313 63.465L47.0859 74.4335C47.0994 74.5167 47.1538 74.5902 47.2493 74.6538C47.3428 74.7056 47.49 74.7507 47.6909 74.7891C47.8918 74.8276 48.1532 74.864 48.4751 74.8982C48.8067 74.9178 49.2106 74.9325 49.6867 74.9423L49.8395 75.8875L41.8442 77.7972ZM51.5089 75.4888L51.3561 74.5435C52.1258 74.1868 52.6944 73.8658 53.0619 73.5804C53.4393 73.2803 53.6145 73.0471 53.5876 72.8806L52.005 63.0892C51.907 62.4829 51.8165 61.9982 51.7335 61.6352C51.6603 61.2575 51.5312 60.9858 51.3462 60.82C51.171 60.6396 50.9118 60.541 50.5684 60.5242C50.225 60.5074 49.738 60.5434 49.1076 60.6323L48.9634 59.7405C49.7721 59.3992 50.579 59.0089 51.384 58.5697C52.2007 58.1276 52.9189 57.6782 53.5386 57.2215L54.3118 57.0368L56.7506 72.1252C56.7737 72.2678 56.9899 72.4014 57.3994 72.5259C57.8186 72.6357 58.4693 72.6717 59.3514 72.6339L59.5042 73.5792L51.5089 75.4888ZM54.024 51.53C54.0817 51.8867 54.071 52.235 53.9921 52.5749C53.925 52.912 53.8042 53.2187 53.6298 53.495C53.4555 53.7713 53.2325 54.0098 52.9607 54.2105C52.7007 54.4085 52.4067 54.5466 52.0787 54.6249C51.5164 54.7593 51.053 54.7156 50.6887 54.4938C50.3342 54.2575 50.1088 53.842 50.0127 53.2475C49.9551 52.8908 49.9598 52.5439 50.027 52.2068C50.1059 51.8669 50.2325 51.5588 50.4069 51.2825C50.5813 51.0062 50.7994 50.7751 51.0613 50.589C51.3213 50.3911 51.6095 50.2543 51.9258 50.1788C52.4764 50.0473 52.9397 50.091 53.3158 50.3099C53.6899 50.5169 53.926 50.9236 54.024 51.53Z" fill="white"/>
<defs>
<filter id="filter0_d_6_6" x="0.120178" y="34.0981" width="88.2763" height="68.0115" filterUnits="userSpaceOnUse" color-interpolation-filters="sRGB">
<feFlood flood-opacity="0" result="BackgroundImageFix"/>
<feColorMatrix in="SourceAlpha" type="matrix" values="0 0 0 0 0 0 0 0 0 0 0 0 0 0 0 0 0 0 127 0" result="hardAlpha"/>
<feOffset dy="4"/>
<feGaussianBlur stdDeviation="2"/>
<feComposite in2="hardAlpha" operator="out"/>
<feColorMatrix type="matrix" values="0 0 0 0 0 0 0 0 0 0 0 0 0 0 0 0 0 0 0.25 0"/>
<feBlend mode="normal" in2="BackgroundImageFix" result="effect1_dropShadow_6_6"/>
<feBlend mode="normal" in="SourceGraphic" in2="effect1_dropShadow_6_6" result="shape"/>
</filter>
</defs>
</svg>
