<svg width="827" height="950" viewBox="0 0 827 950" fill="none" xmlns="http://www.w3.org/2000/svg">
<path d="M827 949.45C739.61 812.514 652.31 675.578 518.75 613.523C385.19 551.571 205.55 564.499 111.5 474.725C17.45 384.951 9.16999 192.476 0.799988 0H827V949.45Z" fill="#2B3E4D"/>
<path d="M827 632.967C768.77 541.642 710.54 450.42 621.53 409.05C532.52 367.679 412.64 376.367 350 316.483C287.27 256.6 281.78 128.352 276.2 0H827V632.967Z" fill="#5188AB"/>
<path d="M827 316.483C797.84 270.873 768.77 225.158 724.22 204.473C679.76 183.891 619.82 188.132 588.5 158.242C557.18 128.352 554.39 64.1241 551.6 0H827V316.483Z" fill="#64B1DE"/>
</svg>
