<svg width="827" height="950" viewBox="0 0 827 950" fill="none" xmlns="http://www.w3.org/2000/svg">
<path d="M0 0.549988C144.09 25.6825 288.18 50.7116 413.1 127.764C538.02 204.816 643.59 333.685 709.29 479.412C774.9 625.139 800.55 787.518 826.2 950H0V0.549988Z" fill="#2B3E4D"/>
<path d="M0 317.033C96.03 333.788 192.15 350.44 275.4 401.843C358.65 453.142 429.12 539.192 472.86 636.309C516.6 733.426 533.7 841.713 550.8 950H0V317.033Z" fill="#5188AB"/>
<path d="M0 633.517C48.06 641.894 96.03 650.272 137.7 675.921C179.37 701.571 214.56 744.596 236.43 793.103C258.3 841.713 266.85 895.805 275.4 950H0V633.517Z" fill="#64B1DE"/>
</svg>
